<?xml version="1.0" standalone="no"?>
<!DOCTYPE svg PUBLIC "-//W3C//DTD SVG 20010904//EN"
 "http://www.w3.org/TR/2001/REC-SVG-20010904/DTD/svg10.dtd">
<svg version="1.0" xmlns="http://www.w3.org/2000/svg"
 width="512.000000pt" height="512.000000pt" viewBox="0 0 512.000000 512.000000"
 preserveAspectRatio="xMidYMid meet">
<metadata>
Created by potrace 1.11, written by Peter Selinger 2001-2013
</metadata>
<g transform="translate(0.000000,512.000000) scale(0.100000,-0.100000)"
fill="#000000" stroke="none">
<path d="M2018 4566 c-1 -2 -44 -6 -93 -10 -135 -9 -237 -30 -365 -74 -347
-118 -626 -349 -809 -667 -184 -322 -238 -724 -145 -1094 105 -422 420 -797
819 -974 147 -65 264 -99 419 -120 92 -13 298 -15 361 -3 17 2 50 8 75 11 189
27 456 140 625 265 l80 59 59 -60 c58 -61 59 -61 47 -97 -6 -21 -13 -52 -15
-69 -8 -75 19 -105 503 -589 l462 -461 198 196 199 196 -462 463 c-253 254
-477 470 -496 480 -45 24 -118 27 -162 9 l-36 -15 -61 62 -62 62 49 65 c232
309 331 676 287 1064 -58 498 -373 937 -827 1154 -90 43 -290 107 -358 116
-30 4 -58 9 -61 11 -3 2 -50 6 -105 9 -54 4 -104 8 -111 10 -6 2 -13 2 -15 1z
m216 -272 c322 -56 589 -220 784 -481 85 -113 164 -279 202 -423 40 -148 46
-380 16 -535 -8 -42 -37 -147 -48 -173 -6 -15 -14 -36 -18 -47 -13 -34 -70
-148 -93 -185 -192 -317 -540 -537 -912 -577 -114 -12 -267 -7 -353 13 -29 7
-53 12 -55 12 -8 -1 -101 27 -147 43 -350 129 -622 411 -739 769 -48 145 -60
234 -57 405 3 122 8 171 30 262 15 62 32 115 37 119 5 3 9 13 9 23 0 9 17 53
38 97 205 422 628 691 1092 693 71 1 163 -6 214 -15z"/>
<path d="M1714 4185 c-338 -112 -674 -435 -778 -748 -22 -64 -20 -81 8 -96 20
-11 29 -10 59 4 48 22 52 28 91 128 102 260 357 491 647 586 68 23 96 46 109
91 6 22 4 32 -9 44 -23 21 -42 20 -127 -9z"/>
<path d="M2093 3842 c-485 -655 -498 -673 -498 -700 0 -26 3 -28 160 -68 103
-27 159 -46 157 -53 -1 -7 -22 -42 -46 -79 -43 -66 -115 -180 -226 -357 -31
-49 -101 -159 -154 -244 -57 -91 -96 -162 -94 -174 2 -11 13 -23 25 -28 23 -8
27 -6 243 197 80 74 159 148 359 334 68 63 136 126 151 140 106 100 273 254
303 281 26 23 37 41 37 60 0 32 12 27 -174 74 -76 19 -141 36 -143 38 -2 3 30
47 70 98 264 334 417 536 417 551 0 18 -25 36 -61 44 -10 2 -27 6 -36 8 -29 7
-226 56 -248 62 -11 2 -37 7 -57 10 l-37 6 -148 -200z"/>
<path d="M3015 2598 c-13 -10 -29 -36 -35 -56 -14 -56 -78 -155 -137 -216 -63
-65 -137 -115 -218 -149 -59 -24 -95 -63 -80 -87 24 -40 214 59 333 174 94 90
176 221 196 313 6 25 4 31 -13 36 -12 3 -31 -3 -46 -15z"/>
</g>
</svg>
